<?xml version="1.0" encoding="utf-8"?>
<!-- Svg Vector Icons : http://www.onlinewebfonts.com/icon -->
<!DOCTYPE svg PUBLIC "-//W3C//DTD SVG 1.1//EN" "http://www.w3.org/Graphics/SVG/1.1/DTD/svg11.dtd">
<svg version="1.1" xmlns="http://www.w3.org/2000/svg" xmlns:xlink="http://www.w3.org/1999/xlink" x="0px" y="0px" viewBox="0 0 1000 1000" enable-background="new 0 0 1000 1000" xml:space="preserve">
<metadata> Svg Vector Icons : http://www.onlinewebfonts.com/icon </metadata>
<g><path d="M500,10C236.3,10,22.6,229.4,22.6,500c0,270.6,213.8,490,477.4,490c263.7,0,477.4-219.4,477.4-490C977.4,229.4,763.7,10,500,10z M639.3,926.3c-22.3,4.5-30.2-9.6-30.2-21.7c0-14.8,0.5-63.4,0.5-123.6c0-42.1-14.1-69.6-29.8-83.6c98-11.1,200.8-49.3,200.8-222.4c0-49.2-17-89.5-45.2-121c4.5-11.4,19.6-57.2-4.4-119.3c0,0-36.9-12.1-120.8,46.3c-35.1-10-72.7-15.1-110.1-15.2c-37.4,0.2-75,5.2-110.1,15.2c-84-58.4-120.9-46.3-120.9-46.3c-23.9,62.1-8.8,107.9-4.3,119.3c-28.1,31.5-45.2,71.8-45.2,121c0,172.8,102.6,211.4,200.3,222.8c-12.5,11.3-23.9,31.1-27.9,60.3c-25,11.5-88.8,31.4-128-37.5c0,0-23.2-43.2-67.4-46.4c0,0-43-0.5-3,27.4c0,0,28.8,13.9,48.8,65.9c0,0,25.8,87.7,148.1,60.5c0.2,37.7,0.6,66,0.6,76.7c0,12-8,25.9-30,21.7C186.2,866.8,60.3,697.8,60.3,498.6c0-249,196.9-450.9,439.7-450.9c242.9,0,439.8,201.9,439.8,450.9C939.7,697.7,813.9,866.6,639.3,926.3z"/></g>
</svg>